<?xml version="1.0" standalone="no"?>
<!DOCTYPE svg PUBLIC "-//W3C//DTD SVG 20010904//EN"
 "http://www.w3.org/TR/2001/REC-SVG-20010904/DTD/svg10.dtd">
<svg version="1.0" xmlns="http://www.w3.org/2000/svg"
 width="16.000000pt" height="16.000000pt" viewBox="0 0 16.000000 16.000000"
 preserveAspectRatio="xMidYMid meet">
<metadata>
Created by potrace 1.11, written by Peter Selinger 2001-2013
</metadata>
<g transform="translate(0.000000,16.000000) scale(0.003030,-0.003030)"
fill="#000000" stroke="none">
<path d="M2411 5269 c-327 -29 -633 -116 -936 -264 -675 -332 -1181 -943
-1380 -1670 -75 -275 -107 -585 -87 -858 27 -376 106 -674 267 -1002 332 -675
943 -1181 1670 -1380 275 -75 585 -107 857 -87 377 27 675 106 1003 267 675
332 1181 943 1380 1670 75 275 107 585 87 858 -27 376 -106 674 -267 1002
-332 675 -943 1181 -1670 1380 -294 80 -625 110 -924 84z m589 -174 c538 -82
1005 -319 1391 -704 332 -333 549 -715 658 -1163 53 -217 65 -329 65 -588 0
-259 -12 -371 -65 -588 -109 -448 -326 -830 -658 -1163 -389 -388 -851 -621
-1401 -706 -161 -25 -539 -25 -700 0 -550 85 -1012 318 -1401 706 -332 333
-549 715 -658 1163 -53 217 -65 329 -65 588 0 259 12 371 65 588 109 448 326
830 658 1163 424 423 948 668 1551 723 96 9 459 -4 560 -19z"/>
<path d="M1887 4843 c-4 -3 -7 -15 -7 -26 0 -16 3 -17 15 -7 8 7 15 19 15 26
0 15 -12 19 -23 7z"/>
<path d="M3380 4843 c0 -4 5 -15 10 -23 8 -13 10 -13 10 2 0 9 -4 20 -10 23
-5 3 -10 3 -10 -2z"/>
<path d="M2612 4398 c-22 -22 -13 -28 38 -28 48 0 50 1 40 20 -12 23 -59 27
-78 8z"/>
<path d="M2574 4314 c-8 -41 -13 -49 -39 -57 -50 -16 -55 -25 -55 -93 l0 -64
-70 0 c-63 0 -70 -2 -70 -20 0 -19 7 -20 104 -20 l105 0 4 48 3 47 2 -47 2
-48 90 0 90 0 0 45 c0 25 5 45 10 45 6 0 10 -20 10 -45 l0 -45 106 0 c95 0
105 2 102 18 -3 14 -16 18 -76 20 l-72 3 0 49 c0 69 -14 99 -48 106 -24 5 -32
14 -44 52 l-14 47 -66 3 -66 3 -8 -47z"/>
<path d="M1914 4275 c-14 -21 -15 -41 -9 -120 l7 -95 95 0 c85 0 94 2 91 18
-2 12 -14 18 -41 20 l-37 3 0 88 c0 97 -7 111 -57 111 -24 0 -37 -7 -49 -25z
m78 -100 c5 -23 2 -25 -31 -24 -32 0 -33 1 -13 9 12 5 25 16 28 25 8 21 11 19
16 -10z"/>
<path d="M2212 4277 c-19 -20 -22 -35 -22 -100 l0 -77 -40 0 c-33 0 -40 -3
-40 -20 0 -19 7 -20 105 -20 l105 0 -6 98 c-5 86 -9 100 -31 120 -31 28 -44
28 -71 -1z m51 -117 c19 -7 17 -9 -14 -9 -34 -1 -36 1 -31 25 4 23 6 24 14 10
5 -10 19 -21 31 -26z"/>
<path d="M3006 4276 c-24 -22 -26 -29 -26 -120 l0 -96 105 0 c98 0 105 1 105
20 0 17 -7 20 -40 20 -36 0 -40 3 -40 25 0 14 -6 25 -12 25 -9 0 -12 19 -11
65 1 54 -1 67 -17 75 -27 15 -36 13 -64 -14z"/>
<path d="M3287 4282 c-13 -14 -17 -38 -17 -100 l0 -82 -30 0 c-23 0 -30 -4
-30 -20 0 -19 7 -20 89 -20 l89 0 7 94 c7 88 6 95 -16 120 -27 31 -68 34 -92
8z m43 -77 c0 -53 -1 -55 -27 -55 l-27 0 22 16 c16 11 22 25 22 55 0 21 2 39
5 39 3 0 5 -25 5 -55z"/>
<path d="M1490 4200 c-35 -35 -26 -50 30 -50 38 0 50 4 50 15 0 17 -35 55 -50
55 -5 0 -19 -9 -30 -20z"/>
<path d="M1786 4198 c-27 -38 -20 -48 34 -48 43 0 50 3 50 19 0 25 -26 51 -50
51 -10 0 -26 -10 -34 -22z"/>
<path d="M3452 4208 c-5 -7 -13 -23 -16 -35 -7 -22 -4 -23 38 -23 39 0 46 3
46 19 0 39 -46 65 -68 39z"/>
<path d="M3747 4202 c-31 -34 -22 -52 27 -52 54 0 62 10 35 44 -24 31 -40 33
-62 8z"/>
<path d="M3412 4180 c0 -14 2 -19 5 -12 2 6 2 18 0 25 -3 6 -5 1 -5 -13z"/>
<path d="M1470 4095 l0 -45 45 0 45 0 0 45 0 45 -45 0 -45 0 0 -45z"/>
<path d="M1770 4095 l0 -45 55 0 55 0 0 45 0 45 -55 0 -55 0 0 -45z"/>
<path d="M3410 4095 l0 -45 60 0 60 0 0 45 0 45 -60 0 -60 0 0 -45z"/>
<path d="M3747 4133 c-4 -3 -7 -24 -7 -45 l0 -38 45 0 45 0 0 45 0 45 -38 0
c-21 0 -42 -3 -45 -7z"/>
<path d="M1910 3995 l0 -45 265 0 265 0 0 45 0 45 -265 0 -265 0 0 -45z"/>
<path d="M2460 3995 l0 -45 200 0 200 0 0 45 0 45 -200 0 -200 0 0 -45z"/>
<path d="M2870 3995 l0 -45 110 0 110 0 0 45 0 45 -110 0 -110 0 0 -45z"/>
<path d="M3100 3995 l0 -45 110 0 110 0 0 45 0 45 -110 0 -110 0 0 -45z"/>
<path d="M3330 3995 c0 -43 1 -45 30 -45 29 0 30 2 30 45 0 43 -1 45 -30 45
-29 0 -30 -2 -30 -45z"/>
<path d="M1470 3985 l0 -45 100 0 100 0 0 33 0 34 -82 11 c-123 18 -118 19
-118 -33z"/>
<path d="M1743 4017 c-63 -10 -63 -10 -63 -43 l0 -34 95 0 95 0 0 45 c0 44 0
45 -32 44 -18 -1 -61 -6 -95 -12z"/>
<path d="M3411 3992 c-1 -26 3 -41 9 -37 6 3 10 1 10 -4 0 -7 33 -11 90 -11
l90 0 0 34 0 34 -86 13 c-70 10 -87 10 -94 0 -6 -11 -9 -11 -13 0 -3 8 -6 -5
-6 -29z"/>
<path d="M3693 4017 c-63 -10 -63 -10 -63 -43 l0 -34 100 0 100 0 0 45 0 45
-37 -1 c-21 -1 -66 -6 -100 -12z"/>
<path d="M1910 3890 l0 -50 205 0 205 0 0 50 0 49 -205 0 -205 0 0 -49z"/>
<path d="M2340 3890 l0 -50 106 0 105 0 -3 48 -3 47 -102 3 -103 3 0 -51z"/>
<path d="M2567 3933 c-4 -3 -7 -26 -7 -50 l0 -43 90 0 90 0 0 50 0 50 -83 0
c-46 0 -87 -3 -90 -7z"/>
<path d="M2760 3890 l0 -50 106 0 105 0 -3 48 -3 47 -102 3 -103 3 0 -51z"/>
<path d="M2987 3933 c-4 -3 -7 -26 -7 -50 l0 -43 110 0 110 0 0 50 0 50 -103
0 c-57 0 -107 -3 -110 -7z"/>
<path d="M3210 3890 l0 -50 91 0 90 0 -3 48 -3 47 -87 3 -88 3 0 -51z"/>
<path d="M1470 3875 l0 -45 45 0 45 0 0 45 0 45 -45 0 -45 0 0 -45z"/>
<path d="M1572 3878 l3 -43 153 -3 152 -3 0 46 0 45 -156 0 -155 0 3 -42z"/>
<path d="M3410 3875 l0 -45 210 0 210 1 0 45 0 44 -210 0 -210 0 0 -45z"/>
<path d="M1910 3780 l0 -49 265 0 265 -1 0 50 0 49 -265 1 -265 0 0 -50z"/>
<path d="M2460 3780 l0 -50 200 0 200 0 0 50 0 50 -200 0 -200 0 0 -50z"/>
<path d="M2874 3816 c-3 -8 -4 -29 -2 -48 l3 -33 105 0 105 0 0 45 0 45 -103
3 c-82 2 -103 0 -108 -12z"/>
<path d="M3100 3780 l0 -50 110 0 110 0 0 50 0 50 -110 0 -110 0 0 -50z"/>
<path d="M3330 3779 c0 -49 1 -50 28 -47 25 3 27 7 30 51 3 46 3 47 -27 47
-30 0 -31 -1 -31 -51z"/>
<path d="M1470 3770 l0 -50 200 0 200 1 0 49 0 50 -200 0 -200 0 0 -50z"/>
<path d="M3430 3809 c0 -5 -4 -7 -10 -4 -6 4 -10 -11 -10 -37 0 -27 3 -38 9
-30 7 11 9 11 14 -2 5 -13 24 -16 97 -16 l90 0 0 50 0 50 -95 0 c-60 0 -95 -4
-95 -11z"/>
<path d="M3630 3770 l0 -51 98 3 97 3 3 48 3 47 -100 0 -101 0 0 -50z"/>
<path d="M1910 3665 l0 -45 123 0 c96 -1 118 -3 102 -12 -11 -6 -23 -16 -27
-22 -5 -7 -8 -4 -8 7 0 15 -11 17 -95 17 l-95 0 0 -150 0 -150 205 0 205 0 0
45 c0 25 5 45 10 45 6 0 10 -20 10 -45 l0 -45 105 0 c63 0 105 4 105 10 0 6
-28 10 -65 10 l-65 0 0 140 c0 127 -2 140 -17 140 -16 1 -15 2 2 12 27 15 35
28 35 61 l0 27 -265 0 -265 0 0 -45z m430 -105 c0 -27 -4 -50 -10 -50 -5 0
-10 23 -10 50 0 28 5 50 10 50 6 0 10 -22 10 -50z m-220 -35 c10 -12 10 -15
-4 -15 -9 0 -16 7 -16 15 0 8 2 15 4 15 2 0 9 -7 16 -15z"/>
<path d="M2460 3670 l0 -40 200 0 200 0 0 40 0 40 -200 0 -200 0 0 -40z"/>
<path d="M2870 3665 l0 -45 73 -1 c39 -1 64 -3 55 -6 -13 -3 -18 -18 -21 -56
l-3 -52 -2 53 -2 52 -50 0 -51 0 2 -107 c0 -60 1 -123 0 -140 l-1 -33 -55 0
c-30 0 -55 -4 -55 -10 0 -6 41 -10 104 -10 l105 0 4 48 3 47 2 -47 2 -48 109
0 110 0 4 48 3 47 2 -47 2 -48 90 0 90 0 -1 150 0 150 -90 0 -89 0 0 -50 c0
-45 -2 -50 -22 -50 -20 0 -21 1 -4 13 26 19 18 68 -14 84 -22 11 -14 13 63 13
l87 0 0 45 0 45 -109 0 -110 0 -4 -47 -3 -48 -2 48 -2 47 -110 0 -110 0 0 -45z
m457 -237 c-2 -18 -4 -6 -4 27 0 33 2 48 4 33 2 -15 2 -42 0 -60z m-227 22 c0
-27 -3 -50 -7 -50 -5 0 -6 22 -5 50 5 65 12 65 12 0z"/>
<path d="M3330 3665 c0 -43 1 -45 30 -45 29 0 30 2 30 45 0 43 -1 45 -30 45
-29 0 -30 -2 -30 -45z"/>
<path d="M1460 3660 l0 -30 205 0 205 0 0 30 0 30 -205 0 -205 0 0 -30z"/>
<path d="M3430 3673 c0 -15 -2 -16 -10 -3 -7 12 -10 8 -10 -15 0 -23 3 -27 10
-15 6 10 10 11 10 3 0 -10 26 -13 95 -13 l95 0 0 30 0 30 -95 0 c-84 0 -95 -2
-95 -17z"/>
<path d="M3630 3661 c0 -16 6 -32 13 -34 6 -3 -43 -6 -110 -6 l-123 -1 0 -50
c0 -50 0 -50 33 -50 26 -1 29 -2 15 -11 -10 -5 -18 -18 -18 -27 -1 -15 -2 -15
-15 2 -14 19 -15 17 -15 -19 0 -36 1 -38 15 -19 13 17 14 17 15 2 0 -9 8 -22
18 -27 14 -9 11 -10 -15 -11 -33 0 -33 0 -33 -50 l0 -50 113 0 112 0 -3 -50
-4 -50 110 0 c127 0 143 8 121 60 -14 30 -14 30 -99 31 -47 1 -76 4 -65 6 11
3 26 10 33 15 8 7 12 7 12 -1 0 -7 24 -11 66 -11 l66 0 -6 33 c-4 17 -9 87
-13 155 l-5 122 -54 0 c-33 0 -54 -4 -54 -11 0 -8 -4 -8 -12 -1 -7 5 -22 12
-33 15 -11 2 17 5 63 6 l82 1 0 30 0 30 -105 0 -105 0 0 -29z m0 -196 c0 -53
-1 -55 -27 -55 l-27 0 22 16 c12 8 22 26 22 39 0 13 -10 31 -22 39 l-22 16 27
0 c26 0 27 -2 27 -55z"/>
<path d="M1455 3519 c6 -84 5 -102 -8 -112 -8 -7 -17 -31 -19 -54 l-4 -43 68
0 68 0 0 50 c0 28 3 50 8 50 4 0 5 -22 4 -50 l-4 -50 156 0 156 0 0 50 c0 48
-1 50 -27 50 l-27 0 22 16 c12 8 22 26 22 39 0 13 -10 31 -22 39 l-22 16 27 0
c26 0 27 2 27 50 l0 50 -156 0 -156 0 4 -50 c1 -28 0 -50 -4 -50 -5 0 -8 23
-8 50 l0 50 -56 0 -56 0 7 -101z m225 -21 c0 -17 -3 -19 -9 -9 -5 7 -15 17
-22 22 -10 6 -8 9 9 9 16 0 22 -6 22 -22z m0 -68 c0 -13 -7 -20 -20 -20 -19 0
-19 1 -2 19 22 25 22 25 22 1z"/>
<path d="M2430 3475 l0 -125 215 0 215 0 0 125 0 125 -215 0 -215 0 0 -125z"/>
<path d="M2560 3320 c0 -6 37 -10 90 -10 53 0 90 4 90 10 0 6 -37 10 -90 10
-53 0 -90 -4 -90 -10z"/>
<path d="M1420 3261 c0 -23 5 -41 10 -41 6 0 10 15 10 34 0 19 -4 38 -10 41
-6 4 -10 -10 -10 -34z"/>
<path d="M1460 3255 l0 -45 205 0 205 0 0 45 0 45 -205 0 -205 0 0 -45z"/>
<path d="M2108 3293 l-198 -3 0 -44 0 -43 61 -7 c77 -8 227 -8 257 0 17 5 22
14 22 40 l0 34 90 0 c50 0 90 4 90 9 0 9 -81 23 -109 19 -9 -2 -105 -4 -213
-5z"/>
<path d="M3410 3262 c0 -26 4 -41 10 -37 6 3 10 1 10 -4 0 -7 35 -11 95 -11
l95 0 0 45 0 45 -95 0 c-69 0 -95 -3 -95 -12 0 -9 -4 -8 -10 2 -7 11 -10 3
-10 -28z"/>
<path d="M2475 3280 c29 -12 378 -12 370 0 -4 6 -80 10 -198 9 -117 0 -184 -4
-172 -9z"/>
<path d="M2895 3280 c11 -5 50 -9 88 -9 l67 -1 0 -40 c0 -33 3 -40 20 -40 17
0 20 7 20 50 l0 50 -107 -1 c-70 0 -101 -3 -88 -9z"/>
<path d="M3100 3241 c0 -43 3 -50 23 -54 12 -2 1 -5 -25 -6 l-48 -1 0 -45 0
-45 74 0 75 0 4 48 3 47 2 -47 2 -48 90 0 90 0 0 45 0 45 -62 1 c-35 0 -56 3
-48 6 25 9 40 35 40 70 l0 33 -110 0 -110 0 0 -49z"/>
<path d="M3330 3245 c0 -43 1 -45 30 -45 29 0 30 2 30 45 0 43 -1 45 -30 45
-29 0 -30 -2 -30 -45z"/>
<path d="M2260 2775 l0 -475 65 0 65 0 0 288 c0 280 1 288 24 337 44 95 128
148 237 148 105 0 179 -48 235 -153 17 -31 19 -65 22 -327 l3 -293 60 0 59 0
0 475 0 475 -385 0 -385 0 0 -475z"/>
<path d="M1417 3194 c-4 -4 -7 -27 -7 -51 l0 -43 76 0 75 0 -3 48 -3 47 -65 3
c-36 2 -69 0 -73 -4z"/>
<path d="M1574 3186 c-3 -8 -4 -29 -2 -48 l3 -33 153 -3 152 -3 0 51 0 50
-150 0 c-120 0 -152 -3 -156 -14z"/>
<path d="M3417 3194 c-4 -4 -7 -27 -7 -51 l0 -43 236 0 235 1 -3 47 -3 47
-226 3 c-124 1 -228 -1 -232 -4z"/>
<path d="M1910 3135 l0 -45 170 0 170 0 0 45 0 45 -170 0 -170 0 0 -45z"/>
<path d="M1409 3055 c-1 -19 -2 -41 -3 -47 -1 -7 7 -14 17 -16 14 -3 17 4 17
47 0 39 -4 51 -15 51 -10 0 -15 -11 -16 -35z"/>
<path d="M1460 3040 l0 -49 205 0 205 0 0 49 0 50 -205 0 -205 0 0 -50z"/>
<path d="M3430 3079 c0 -5 -4 -7 -10 -4 -6 4 -10 -11 -10 -37 0 -27 3 -38 9
-30 7 11 9 11 14 -2 5 -13 24 -16 97 -16 l90 0 0 50 0 50 -95 0 c-60 0 -95 -4
-95 -11z"/>
<path d="M3630 3040 l0 -51 130 2 c143 2 138 -1 124 68 l-6 31 -124 0 -124 0
0 -50z"/>
<path d="M1910 3030 l0 -49 170 0 170 0 0 49 0 49 -170 0 -170 0 0 -49z"/>
<path d="M3050 3030 c0 -44 3 -51 18 -48 13 3 17 13 17 48 0 35 -4 45 -17 48
-15 3 -18 -4 -18 -48z"/>
<path d="M3100 3030 l0 -50 110 0 110 0 0 50 0 50 -110 0 -110 0 0 -50z"/>
<path d="M3330 3030 c0 -50 1 -51 28 -48 25 3 27 6 27 48 0 42 -2 45 -27 48
-27 3 -28 2 -28 -48z"/>
<path d="M1400 2951 c0 -16 -3 -36 -6 -45 -5 -14 6 -16 80 -16 l86 0 0 45 0
45 -80 0 -80 0 0 -29z"/>
<path d="M1570 2935 l0 -45 155 0 155 0 0 45 0 45 -155 0 -155 0 0 -45z"/>
<path d="M3410 2935 l0 -45 246 0 247 0 -7 31 c-3 17 -6 38 -6 45 0 12 -43 14
-240 14 l-240 0 0 -45z"/>
<path d="M1910 2925 l0 -45 170 0 170 0 0 45 0 45 -170 0 -170 0 0 -45z"/>
<path d="M3050 2925 l0 -45 75 0 75 0 0 45 0 45 -75 0 -75 0 0 -45z"/>
<path d="M3210 2925 l0 -45 90 0 90 0 0 45 0 45 -90 0 -90 0 0 -45z"/>
<path d="M1390 2825 c0 -41 2 -45 25 -45 23 0 25 4 25 45 0 41 -2 45 -25 45
-23 0 -25 -4 -25 -45z"/>
<path d="M1460 2825 l0 -45 205 0 205 0 0 45 0 45 -205 0 -205 0 0 -45z"/>
<path d="M3410 2832 c0 -26 4 -41 10 -37 6 3 10 1 10 -4 0 -7 35 -11 95 -11
l95 0 0 45 0 45 -95 0 c-69 0 -95 -3 -95 -12 0 -9 -4 -8 -10 2 -7 11 -10 3
-10 -28z"/>
<path d="M3630 2825 l0 -45 135 0 135 0 0 45 0 45 -135 0 -135 0 0 -45z"/>
<path d="M1910 2815 l0 -45 170 0 170 0 0 45 0 45 -170 0 -170 0 0 -45z"/>
<path d="M3050 2815 c0 -38 3 -45 20 -45 17 0 20 7 20 45 0 38 -3 45 -20 45
-17 0 -20 -7 -20 -45z"/>
<path d="M3100 2815 l0 -45 110 0 110 0 0 45 0 45 -110 0 -110 0 0 -45z"/>
<path d="M3330 2815 c0 -43 1 -45 30 -45 29 0 30 2 30 45 0 43 -1 45 -30 45
-29 0 -30 -2 -30 -45z"/>
<path d="M1380 2720 l0 -50 90 0 90 0 0 50 0 50 -90 0 -90 0 0 -50z"/>
<path d="M1574 2756 c-3 -8 -4 -29 -2 -48 l3 -33 153 -3 152 -3 0 51 0 50
-150 0 c-120 0 -152 -3 -156 -14z"/>
<path d="M3410 2720 l0 -50 250 0 250 1 0 49 0 49 -250 1 -250 0 0 -50z"/>
<path d="M1910 2711 l0 -50 43 -4 42 -4 -42 -1 -43 -2 0 -100 0 -100 95 0 c84
0 95 2 95 18 0 12 2 14 9 4 4 -7 21 -17 37 -22 20 -6 -11 -9 -103 -9 l-133 -1
0 -44 0 -45 43 -4 42 -4 -42 -1 c-31 -1 -43 -6 -43 -17 0 -12 17 -15 94 -15
82 0 95 2 99 18 4 16 5 16 6 0 1 -15 11 -18 71 -18 56 0 70 3 70 15 0 8 -7 15
-15 15 -8 0 -15 5 -15 11 0 5 4 8 9 5 11 -7 21 18 21 54 0 24 -5 29 -27 33
l-28 4 27 2 28 1 -1 86 c-1 92 -5 117 -20 108 -5 -3 -9 0 -9 5 0 6 7 11 16 11
12 0 14 10 12 48 l-3 47 -167 2 -168 3 0 -49z m220 -165 c0 -2 -7 -9 -15 -16
-12 -10 -15 -10 -15 4 0 9 7 16 15 16 8 0 15 -2 15 -4z"/>
<path d="M3050 2605 l0 -155 25 0 c24 0 25 -2 23 -57 l-2 -58 -3 53 c-3 44 -7
52 -24 52 -17 0 -19 -7 -19 -65 l0 -65 69 0 c46 0 71 4 75 13 5 10 7 10 12 0
4 -9 33 -13 96 -13 67 0 89 3 86 13 -3 6 -25 13 -51 15 -42 3 -46 5 -32 18 8
9 15 31 15 50 l0 34 -92 1 c-51 1 -84 4 -73 6 11 3 26 10 33 15 15 13 16 60 0
76 -9 9 -8 12 5 12 14 0 17 -10 17 -50 l0 -50 90 0 89 0 0 100 0 100 -29 0
c-29 0 -30 -1 -32 -52 -1 -48 -2 -49 -5 -13 -3 22 -12 48 -20 58 -15 16 -13
17 36 17 l52 0 -3 48 -3 47 -87 3 -87 3 -4 -48 -3 -48 -2 48 -2 47 -75 0 -75
0 0 -155z m50 0 c0 -30 -3 -55 -7 -55 -5 0 -6 25 -5 55 5 71 12 71 12 0z"/>
<path d="M1370 2615 c0 -45 0 -45 35 -45 35 0 35 0 35 45 0 45 0 45 -35 45
-35 0 -35 0 -35 -45z"/>
<path d="M1460 2615 l0 -45 205 0 205 0 0 45 0 45 -205 0 -205 0 0 -45z"/>
<path d="M3430 2649 c0 -5 -4 -7 -10 -4 -6 4 -10 -11 -10 -37 0 -31 3 -39 10
-28 6 10 10 11 10 3 0 -10 26 -13 95 -13 l95 0 0 45 0 45 -95 0 c-60 0 -95 -4
-95 -11z"/>
<path d="M3630 2615 l0 -45 145 0 145 0 0 45 0 45 -145 0 -145 0 0 -45z"/>
<path d="M1367 2518 c-3 -24 -6 -62 -6 -85 l-2 -43 41 0 c39 0 40 1 40 35 0
19 5 35 10 35 6 0 10 -16 10 -35 l0 -35 205 0 c163 1 205 3 205 14 0 14 -26
40 -50 49 -8 3 2 6 23 6 l37 1 0 50 0 50 -154 0 -155 0 -4 -52 -3 -53 -2 53
-2 52 -94 0 -94 0 -5 -42z m315 -84 c-4 -23 -6 -24 -14 -10 -5 10 -19 21 -31
26 -19 7 -17 9 14 9 34 1 36 -1 31 -25z"/>
<path d="M3410 2510 l0 -50 43 0 c36 -1 39 -2 22 -12 -26 -14 -46 -39 -39 -49
3 -5 45 -9 95 -9 98 0 112 11 63 49 l-27 21 32 0 c29 0 31 -2 31 -35 l0 -35
150 1 150 0 0 30 c0 24 -4 29 -24 29 -14 0 -31 -9 -39 -20 -14 -21 -15 -21
-19 5 -5 24 -3 25 39 25 l44 0 -3 48 -3 47 -92 3 c-80 2 -93 0 -93 -13 0 -15
-1 -15 -16 -1 -13 13 -42 16 -165 16 l-149 0 0 -50z"/>
<path d="M3330 2395 c0 -43 1 -45 30 -45 29 0 30 2 30 45 0 43 -1 45 -30 45
-29 0 -30 -2 -30 -45z"/>
<path d="M3412 2420 c0 -14 2 -19 5 -12 2 6 2 18 0 25 -3 6 -5 1 -5 -13z"/>
<path d="M2786 1860 c-57 -22 -118 -78 -149 -135 -17 -31 -22 -57 -22 -115 0
-134 54 -196 250 -291 144 -69 175 -98 175 -164 0 -138 -198 -168 -338 -50
-16 14 -33 25 -36 25 -9 0 -85 -124 -80 -131 2 -4 31 -26 64 -48 110 -73 284
-91 397 -41 105 46 163 137 163 255 0 139 -61 214 -246 301 -62 30 -126 65
-143 80 -57 48 -47 135 19 169 60 31 177 12 246 -40 l33 -25 35 59 c20 32 36
63 36 67 0 15 -92 71 -143 88 -68 23 -198 20 -261 -4z"/>
<path d="M2218 1491 c-3 -367 -4 -380 -24 -408 -44 -60 -143 -68 -204 -16 -18
14 -35 22 -39 17 -5 -5 -20 -35 -34 -66 l-26 -58 32 -24 c80 -60 209 -71 313
-27 63 27 96 60 126 126 23 49 23 57 26 443 l3 392 -85 0 -85 0 -3 -379z"/>
</g>
</svg>
